<?xml version="1.0" encoding="utf-8"?>
<!-- Generator: Adobe Illustrator 16.0.0, SVG Export Plug-In . SVG Version: 6.00 Build 0)  -->
<!DOCTYPE svg PUBLIC "-//W3C//DTD SVG 1.1//EN" "http://www.w3.org/Graphics/SVG/1.1/DTD/svg11.dtd">
<svg version="1.1" id="Layer_1" xmlns="http://www.w3.org/2000/svg" xmlns:xlink="http://www.w3.org/1999/xlink" x="0px" y="0px"
	 width="960px" height="560px" viewBox="0 0 960 560" enable-background="new 0 0 960 560" xml:space="preserve">
<g>
	<g>
		<path fill-rule="evenodd" clip-rule="evenodd" fill="none" d="M449.24,276.36c0-8.76,0.011-17.521-0.021-26.28
			c-0.002-0.716,0.144-0.863,0.86-0.86c8.84,0.031,17.68,0.021,26.52,0.021c-0.22,0.331-0.566,0.191-0.865,0.232
			c-2.181,0.301-4.334,0.709-6.335,1.688c-3.813,1.141-6.988,3.331-9.944,5.93c-4.893,4.301-7.941,9.669-9.504,15.945
			C449.677,274.137,449.713,275.303,449.24,276.36z"/>
		<path fill-rule="evenodd" clip-rule="evenodd" fill="none" d="M483.32,249.24c8.84,0,17.68,0.011,26.52-0.021
			c0.717-0.002,0.863,0.144,0.86,0.86c-0.03,8.84-0.02,17.68-0.02,26.52c-0.48-0.899-0.136-2.005-0.723-2.878
			c-0.029-0.34,0.11-0.713-0.194-1c-0.026-0.227-0.052-0.454-0.078-0.68c-0.575-2.361-1.434-4.623-2.643-6.723
			c-1.141-1.981-2.23-4.022-4.038-5.525l0.002,0.002c-0.576-1.213-1.626-1.972-2.645-2.76c-0.024-0.043-0.059-0.076-0.104-0.096
			c-3.545-3.371-7.789-5.461-12.459-6.737C486.328,249.801,484.814,249.557,483.32,249.24z"/>
		<path fill-rule="evenodd" clip-rule="evenodd" fill="none" d="M510.681,283.561c0,8.76-0.011,17.52,0.02,26.28
			c0.003,0.716-0.144,0.862-0.86,0.859c-8.199-0.031-16.399-0.02-24.6-0.02c0-0.16,0.001-0.32,0.001-0.48
			c0.081-0.001,0.161-0.002,0.242-0.003c0.334-0.027,0.711,0.124,0.963-0.236c0.078,0,0.156,0,0.234-0.001
			c1.833-0.33,3.629-0.773,5.279-1.679c0.082-0.078,0.165-0.156,0.248-0.234l0.002,0.004c1.019-0.088,1.801-0.694,2.629-1.2
			c0.889-0.34,1.679-0.842,2.407-1.446c0.491-0.376,1.113-0.591,1.441-1.168c0.883-0.549,1.721-1.153,2.404-1.948
			c0.42-0.299,0.848-0.592,0.981-1.137c0.679-0.685,1.495-1.248,1.908-2.167c0.774-0.641,1.335-1.436,1.699-2.37
			c0.888-0.918,1.43-2.038,1.881-3.211c0.92-1.837,1.651-3.74,2.212-5.724C510.157,286.318,510.154,284.883,510.681,283.561z"/>
		<path fill-rule="evenodd" clip-rule="evenodd" fill="none" d="M474.68,310.681c-8.2,0-16.4-0.012-24.6,0.02
			c-0.716,0.003-0.863-0.144-0.86-0.859c0.031-8.761,0.021-17.521,0.021-26.28c0.318,1.416,0.58,2.849,0.968,4.245
			c0.713,2.562,1.522,5.094,3.064,7.313c0.307,0.858,0.798,1.596,1.456,2.225c0.44,1.015,1.083,1.877,1.944,2.574
			c0.381,0.793,1,1.374,1.682,1.898c0.625,0.915,1.554,1.489,2.405,2.15c0.719,0.55,1.438,1.101,2.156,1.651
			c0.862,0.525,1.64,1.199,2.64,1.479c0.864,0.672,1.887,1.021,2.884,1.423c0.958,0.328,1.831,0.907,2.88,0.96
			c1.019,0.333,2.035,0.675,3.12,0.721C474.638,310.301,474.681,310.479,474.68,310.681z"/>
		<path fill-rule="evenodd" clip-rule="evenodd" fill="#AEAEAE" d="M453.272,295.119c-1.542-2.22-2.351-4.752-3.064-7.313
			c-0.389-1.396-0.65-2.829-0.968-4.245c0-2.4,0-4.8,0-7.2c0.473-1.058,0.437-2.224,0.711-3.326
			c1.563-6.276,4.612-11.644,9.504-15.945c2.956-2.599,6.131-4.789,9.944-5.93c0.198,0.011,0.384,0.045,0.484,0.248
			c-5.169,1.786-9.33,5.04-12.949,9.03c-1.055,1.163-2.119,2.374-2.664,3.909c-0.795,1.118-1.47,2.299-1.895,3.612
			c-0.644,1.205-0.985,2.508-1.245,3.837c-0.577,0.997-0.608,2.121-0.665,3.214c-0.061,1.166,0.435,1.476,1.557,1.173
			c0.917-0.248,1.772-0.712,2.737-0.795c-0.012,2.074,0.122,4.162-0.069,6.219c-0.311,3.35-0.9,6.67-0.912,10.051
			C453.775,292.818,453.738,294.009,453.272,295.119z"/>
		<path fill-rule="evenodd" clip-rule="evenodd" fill="#ECECEC" d="M474.68,310.681c0-0.201-0.042-0.38-0.241-0.48
			c-0.558-0.51-1.074-1.076-1.68-1.52c-2.408-1.763-3.942-4.17-4.903-6.911c-1.262-3.597-1.436-7.329-0.761-11.068
			c0.13-0.722-0.147-1.767,0.933-2.126c0.57,0.899,1.141,1.8,1.711,2.699c-0.476,0.771-0.645,1.602-0.591,2.511
			c0.054,0.915-0.01,1.836,0.015,2.753c0.12,4.321,1.582,7.952,5.197,10.604c2.201,1.615,4.628,2.455,7.255,2.02
			c4.046-0.671,6.989-3.075,9.01-6.618c0.198-0.349,0.337-0.741,0.835-0.743c-0.507,2.04-1.63,3.731-2.993,5.286
			c0.144,1.181-0.71,1.689-1.503,2.246c-0.204,0.144-0.278,0.378-0.283,0.628c-0.078,0.001-0.156,0.001-0.234,0.001
			c-0.332,0.035-0.711-0.122-0.963,0.236c-0.081,0.001-0.161,0.002-0.242,0.003c-0.423,0.104-1.048-0.299-1.201,0.48
			C480.92,310.681,477.8,310.681,474.68,310.681z"/>
		<path fill-rule="evenodd" clip-rule="evenodd" fill="#BABABA" d="M510.681,283.561c-0.526,1.322-0.523,2.758-0.907,4.119
			c-0.561,1.983-1.292,3.887-2.212,5.724c-0.297-0.469-0.334-1.014-0.222-1.506c0.298-1.301,0.108-2.622,0.247-3.919
			c0.132-1.232-0.276-2.474,0.028-3.661c0.548-2.14,0.71-4.3,0.667-6.491c-0.01-0.475-0.079-0.982,0.488-1.234
			c0.878,0.139,1.327-0.14,1.207-1.121c-0.071-0.576-0.015-1.168-0.015-1.753l-0.005,0.003c0.587,0.873,0.242,1.979,0.723,2.878
			C510.681,278.92,510.681,281.24,510.681,283.561z"/>
		<path fill-rule="evenodd" clip-rule="evenodd" fill="#BEBDBD" d="M469.884,251.408c-0.1-0.203-0.286-0.237-0.484-0.248
			c2.001-0.978,4.154-1.387,6.335-1.688c0.299-0.042,0.645,0.099,0.865-0.232c2.24,0,4.48,0,6.72,0
			c1.494,0.316,3.008,0.561,4.479,0.962c4.67,1.276,8.914,3.366,12.459,6.737c-0.634,0.136-1.06-0.289-1.495-0.604
			c-2.062-1.497-4.216-2.84-6.563-3.832c-1.929-0.814-3.869-1.632-5.986-1.854c-0.269-0.317-0.637-0.197-0.972-0.224
			c-0.24-0.071-0.481-0.143-0.722-0.214c-1.187-0.352-2.417-0.402-3.637-0.479C477.1,249.496,473.449,250.186,469.884,251.408z"/>
		<path fill-rule="evenodd" clip-rule="evenodd" fill="#E5E4E4" d="M484.04,310.681c0.153-0.779,0.778-0.376,1.201-0.48
			c0,0.16-0.001,0.32-0.001,0.48C484.84,310.681,484.44,310.681,484.04,310.681z"/>
		<path fill-rule="evenodd" clip-rule="evenodd" fill="#ECECEC" d="M486.214,250.649c2.117,0.223,4.058,1.04,5.986,1.854
			c2.348,0.992,4.502,2.335,6.563,3.832c0.436,0.316,0.861,0.741,1.495,0.604c0.045,0.021,0.079,0.053,0.104,0.096
			c0.456,1.328,1.447,2.143,2.645,2.76l-0.002-0.002c-0.223,0.757,0.742,1.007,0.719,1.679c0.122,1.196-0.301,2.171-1.17,2.986
			c-0.227,0.212-0.506,0.479-0.552,0.755c-0.276,1.685-1.723,2.819-2.055,4.479c-0.094,0.465-0.433,0.855-0.992,0.906
			c-0.04-0.334-0.177-0.599-0.515-0.721c-0.142-0.166-0.284-0.331-0.427-0.497c0.111-1.022-0.741-1.469-1.262-2.115
			c-0.007-0.557,0.146-1.047,0.355-1.581c0.392-0.995,0.927-1.913,1.347-2.889c0.099-0.229,0.272-0.543,0.018-0.611
			c-0.872-0.233-0.868-1.191-1.391-1.608c-2.17-1.732-4.495-3.233-7.252-3.897c0.065-0.508,0.174-1.015,0.186-1.524
			c0.022-0.949-0.257-1.709-1.34-1.931c-0.607-0.125-1.049-0.289-0.796,0.682c0.171,0.656,0.151,1.399-0.216,2.052
			c-0.434-0.089-0.867-0.179-1.302-0.268c0.019-0.157,0.048-0.314,0.052-0.472c0.059-2.071-1.042-3.628-2.803-3.958
			c-0.269-0.051-0.602-0.16-0.794,0.059c-0.251,0.286,0.116,0.475,0.234,0.7c0.605,1.16,1.032,2.358,0.755,3.699
			c-0.159,0-0.319,0-0.479,0c-0.068-0.184-0.169-0.362-0.201-0.552c-0.416-2.465-1.775-3.815-4.367-3.725
			c0.022-0.4,0.263-0.507,0.63-0.526c1.366-0.072,2.718-0.339,4.098-0.25c0.386,0.025,0.917,0.204,1.033-0.456
			c0.24,0.071,0.481,0.143,0.722,0.214C485.418,251.144,485.786,251.024,486.214,250.649z"/>
		<path fill-rule="evenodd" clip-rule="evenodd" fill="#BEBDBD" d="M503.724,261.474c0.023-0.672-0.941-0.922-0.719-1.679
			c1.808,1.503,2.897,3.544,4.038,5.525c1.209,2.1,2.067,4.362,2.643,6.723c-0.072,0-0.146-0.001-0.219,0
			c-0.391-0.881-0.781-1.763-1.172-2.644c-0.354-1.3-0.93-2.498-1.685-3.612C505.908,264.174,505.021,262.687,503.724,261.474z"/>
		<path fill-rule="evenodd" clip-rule="evenodd" fill="#BEBDBD" d="M503.007,259.796c-1.197-0.618-2.188-1.433-2.645-2.76
			C501.381,257.824,502.431,258.583,503.007,259.796z"/>
		<path fill-rule="evenodd" clip-rule="evenodd" fill="#BABABA" d="M509.764,272.723c0.305,0.286,0.165,0.659,0.194,1l0.005-0.003
			c-0.365-0.249-0.209-0.628-0.24-0.96L509.764,272.723z"/>
		<path fill-rule="evenodd" clip-rule="evenodd" fill="#BABABA" d="M509.467,272.042c0.073,0,0.146,0,0.219,0
			c0.026,0.227,0.052,0.453,0.078,0.68l-0.041,0.036c-0.082,0.001-0.163,0.002-0.244,0.004
			C509.475,272.522,509.471,272.282,509.467,272.042z"/>
		<path fill-rule="evenodd" clip-rule="evenodd" fill="#DDD9D9" d="M497.246,305.404c-0.729,0.604-1.519,1.106-2.407,1.446
			c-0.036-1.025,0.849-1.633,1.138-2.511c0.15-0.454,0.595-0.893,0.021-1.354c0.539-0.994,0.959-2.038,1.324-3.106
			c0.603-0.075,0.732-0.58,0.859-1.025c0.855-2.989,1.19-6.085,1.13-9.15c-0.035-1.749-0.052-3.547-0.349-5.323
			c-0.5-2.994-1.254-5.87-2.724-8.54c-0.178-0.325-0.438-0.436-0.768-0.475c0.294-0.551,1.219-0.629,1.111-1.481
			c0.435-0.281,0.438,0.056,0.458,0.332c0.045,0.603-0.374,1.095-0.443,1.705c0.446,0.021,0.548-0.445,0.875-0.544
			c0.603,0.75,1.059,1.567,1.368,2.491c0.862,2.573,1.289,5.203,1.59,7.905c0.402,3.612,0.025,7.139-0.519,10.664
			c-0.425,2.755-1.369,5.375-2.575,7.897C497.199,304.622,496.812,305.014,497.246,305.404z"/>
		<path fill-rule="evenodd" clip-rule="evenodd" fill="#D2D2D2" d="M501.092,302.288c-0.684,0.795-1.521,1.399-2.404,1.948
			c-0.034-0.581,0.212-1.09,0.425-1.603c1.604-3.865,2.291-7.924,2.425-12.074c0.065-2.024,0.059-4.053-0.181-6.089
			c-0.385-3.268-1.151-6.404-2.484-9.404c-0.191-0.432-0.37-0.923-1.007-0.844c-0.138-0.41-0.098-0.814,0.041-1.215
			c0.934,0.103,1.809,0.429,2.694,0.713c-0.049,0.694,0.2,1.334,0.39,1.977c1.267,4.282,2.066,8.629,2.029,13.115
			c-0.007,0.77-0.287,1.479-0.268,2.245c0.089,3.458-0.746,6.758-1.784,10.019C500.833,301.498,500.686,301.921,501.092,302.288z"/>
		<path fill-rule="evenodd" clip-rule="evenodd" fill="#CCCCCC" d="M503.981,298.984c-0.413,0.919-1.229,1.482-1.908,2.167
			c-0.222-0.917,0.286-1.709,0.457-2.556c0.479-2.371,0.816-4.75,1.046-7.164c0.307-3.233,0.124-6.433-0.275-9.617
			c-0.33-2.625-1.129-5.184-1.259-7.848c0.731,0.201,1.363,0.706,2.159,0.709c0.08,0.083,0.16,0.165,0.24,0.248
			c-0.142,1.678,0.328,3.319,0.265,5.001c-0.044,1.182,0.108,2.379,0.251,3.559c0.403,3.339,0.28,6.663-0.183,9.983
			C504.518,295.307,504.246,297.146,503.981,298.984z"/>
		<path fill-rule="evenodd" clip-rule="evenodd" fill="#C0C0C0" d="M508.771,276.593c-0.567,0.251-0.498,0.759-0.488,1.234
			c0.043,2.191-0.119,4.351-0.667,6.491c-0.305,1.188,0.104,2.429-0.028,3.661c-0.139,1.297,0.051,2.618-0.247,3.919
			c-0.112,0.492-0.075,1.037,0.222,1.506c-0.451,1.173-0.993,2.293-1.881,3.211c-0.207-1.286,0.219-2.525,0.277-3.794
			c0.102-2.18,0.485-4.372,0.331-6.529c-0.141-1.954-0.063-3.899-0.175-5.845c-0.044-0.761,0.464-1.477,0.183-2.238
			c-0.324-0.875-0.174-1.723,0.064-2.576c0.157,0.004,0.315,0.009,0.473,0.013C507.338,276.251,508.216,276.092,508.771,276.593z"/>
		<path fill-rule="evenodd" clip-rule="evenodd" fill="#D9D8D8" d="M497.865,274.223c0.637-0.08,0.815,0.412,1.007,0.844
			c1.333,3,2.1,6.137,2.484,9.404c0.239,2.036,0.246,4.064,0.181,6.089c-0.134,4.15-0.821,8.209-2.425,12.074
			c-0.213,0.513-0.459,1.021-0.425,1.603c-0.328,0.577-0.95,0.792-1.441,1.168c-0.435-0.391-0.047-0.782,0.091-1.071
			c1.206-2.522,2.15-5.143,2.575-7.897c0.544-3.525,0.921-7.052,0.519-10.664c-0.301-2.702-0.728-5.332-1.59-7.905
			c-0.31-0.924-0.766-1.741-1.368-2.491C497.724,275.032,497.865,274.651,497.865,274.223z"/>
		<path fill-rule="evenodd" clip-rule="evenodd" fill="#C5C5C5" d="M506.361,275.632c-0.238,0.853-0.389,1.7-0.064,2.576
			c0.281,0.762-0.227,1.478-0.183,2.238c0.111,1.945,0.034,3.891,0.175,5.845c0.154,2.157-0.229,4.35-0.331,6.529
			c-0.059,1.269-0.484,2.508-0.277,3.794c-0.364,0.935-0.925,1.729-1.699,2.37c0.265-1.839,0.536-3.678,0.793-5.518
			c0.463-3.32,0.586-6.645,0.183-9.983c-0.143-1.18-0.295-2.377-0.251-3.559c0.063-1.682-0.406-3.324-0.265-5.001
			C505.1,275.111,505.786,275.222,506.361,275.632z"/>
		<path fill-rule="evenodd" clip-rule="evenodd" fill="#CFCFCF" d="M502.042,273.967c0.13,2.664,0.929,5.223,1.259,7.848
			c0.399,3.185,0.582,6.384,0.275,9.617c-0.229,2.414-0.567,4.793-1.046,7.164c-0.171,0.847-0.679,1.639-0.457,2.556
			c-0.134,0.545-0.562,0.838-0.981,1.137c-0.406-0.367-0.259-0.79-0.124-1.212c1.038-3.261,1.873-6.561,1.784-10.019
			c-0.02-0.767,0.261-1.476,0.268-2.245c0.037-4.486-0.763-8.833-2.029-13.115c-0.189-0.643-0.438-1.283-0.39-1.977
			c0.24,0,0.48,0,0.72,0C501.49,274.008,501.779,273.948,502.042,273.967z"/>
		<path fill-rule="evenodd" clip-rule="evenodd" fill="#E5E4E4" d="M486.681,309.96c0.005-0.25,0.079-0.484,0.283-0.628
			c0.793-0.557,1.646-1.065,1.503-2.246c1.609,0.122,2.948-0.707,4.37-1.247c0.549,0.351,0.11,0.69-0.057,0.971
			c-0.236,0.397-0.55,0.747-0.57,1.241l-0.002-0.004c-0.083,0.078-0.166,0.156-0.248,0.234
			C490.31,309.187,488.514,309.63,486.681,309.96z"/>
		<path fill-rule="evenodd" clip-rule="evenodd" fill="#DFDFDF" d="M492.21,308.051c0.021-0.494,0.334-0.844,0.57-1.241
			c0.167-0.28,0.605-0.62,0.057-0.971c1.133-0.862,2.263-1.729,3.161-2.854c0.573,0.462,0.129,0.9-0.021,1.354
			c-0.289,0.878-1.174,1.485-1.138,2.511C494.011,307.356,493.229,307.963,492.21,308.051z"/>
		<path fill-rule="evenodd" clip-rule="evenodd" fill="#E5E4E4" d="M485.483,310.197c0.252-0.358,0.631-0.201,0.963-0.236
			C486.194,310.321,485.817,310.17,485.483,310.197z"/>
		<path fill-rule="evenodd" clip-rule="evenodd" fill="#DFDFDF" d="M491.96,308.281c0.082-0.078,0.165-0.156,0.248-0.234
			C492.125,308.125,492.042,308.203,491.96,308.281z"/>
		<path fill-rule="evenodd" clip-rule="evenodd" fill="#BEBDBD" d="M456.672,299.918c-0.861-0.697-1.504-1.56-1.944-2.574
			c0.108-2.697,0.021-5.395,0.226-8.096c0.14-1.86,0.385-3.703,0.717-5.517c0.551-3.006,0.954-6.011,1.007-9.064
			c0.923-0.396,1.879-0.657,2.887-0.709c-0.061,0.963-0.422,1.899-0.256,2.882c-0.013,0.401-0.025,0.802-0.039,1.203
			c-0.72-0.046-0.766,0.488-0.925,0.997c-0.793,2.536-1.273,5.14-1.621,7.76c-0.28,2.111-0.55,4.259-0.46,6.375
			C456.36,295.42,456.523,297.671,456.672,299.918z"/>
		<path fill-rule="evenodd" clip-rule="evenodd" fill="#E5E4E4" d="M471.32,309.479c-1.049-0.053-1.922-0.632-2.88-0.96
			c-0.004-0.396-0.006-0.761-0.275-1.125c-2.82-3.818-3.952-8.187-4.028-12.856c-0.038-2.3,0.259-4.585,0.716-6.844
			c-0.039-0.5-0.078-1-0.117-1.5c0.498,0.03,0.517-0.327,0.626-0.687c0.367-1.209,0.785-2.403,1.179-3.604
			c0.146-0.443,0.343-0.813,0.907-0.741c-0.007,1.52-0.015,3.039-0.022,4.559c-0.787-0.072-0.784,0.596-0.867,1.041
			c-0.624,3.379-1.171,6.735-0.812,10.231c0.402,3.912,1.614,7.379,4.073,10.462C470.334,308.099,471.274,308.48,471.32,309.479z"/>
		<path fill-rule="evenodd" clip-rule="evenodd" fill="#DFDFDF" d="M464.853,287.694c-0.458,2.259-0.754,4.544-0.716,6.844
			c0.077,4.67,1.208,9.038,4.028,12.856c0.269,0.364,0.271,0.729,0.275,1.125c-0.998-0.401-2.02-0.751-2.884-1.423
			c0.061-0.468-0.184-0.842-0.365-1.24c-0.443-0.979-0.94-1.939-1.292-2.95c-1.505-4.322-1.621-8.78-1.18-13.278
			c0.081-0.823,0.304-1.632,0.435-2.451c0.054-0.338,0.231-0.485,0.545-0.519C464.083,287.004,464.468,287.349,464.853,287.694z"/>
		<path fill-rule="evenodd" clip-rule="evenodd" fill="#D9D8D8" d="M463.699,286.658c-0.314,0.033-0.492,0.181-0.545,0.519
			c-0.131,0.819-0.354,1.628-0.435,2.451c-0.44,4.498-0.325,8.956,1.18,13.278c0.352,1.011,0.849,1.972,1.292,2.95
			c0.181,0.398,0.425,0.772,0.365,1.24c-1-0.279-1.778-0.953-2.64-1.479c-0.126-1.442-0.806-2.729-1.154-4.105
			c-1.011-4-1.173-8.074-0.725-12.155c0.176-1.599,0.315-3.241,0.994-4.75C462.587,285.291,463.143,285.975,463.699,286.658z"/>
		<path fill-rule="evenodd" clip-rule="evenodd" fill="#C5C5C5" d="M456.672,299.918c-0.149-2.247-0.313-4.498-0.408-6.743
			c-0.09-2.116,0.18-4.264,0.46-6.375c0.348-2.62,0.828-5.225,1.621-7.76c0.159-0.509,0.205-1.043,0.925-0.997
			c0.241,0.96,0.481,1.92,0.722,2.879c-0.611,0.126-0.615,0.674-0.745,1.11c-0.825,2.788-1.247,5.657-1.335,8.546
			c-0.088,2.854-0.177,5.719,0.381,8.571c0.16,0.82,0.528,1.774,0.061,2.667C457.672,301.292,457.053,300.711,456.672,299.918z"/>
		<path fill-rule="evenodd" clip-rule="evenodd" fill="#CCCCCC" d="M458.354,301.816c0.467-0.893,0.1-1.847-0.061-2.667
			c-0.558-2.853-0.469-5.717-0.381-8.571c0.088-2.889,0.51-5.758,1.335-8.546c0.129-0.437,0.133-0.984,0.745-1.11
			c0.075,0.739,0.75,1.193,0.9,1.896c-0.212,0.55-0.551,1.031-0.634,1.655c-0.266,1.993-0.769,3.968-0.878,5.966
			c-0.119,2.168-0.197,4.354,0.112,6.538c0.333,2.35,0.796,4.669,1.268,6.989C459.908,303.306,458.979,302.731,458.354,301.816z"/>
		<path fill-rule="evenodd" clip-rule="evenodd" fill="#D2D2D2" d="M460.759,303.967c-0.472-2.32-0.935-4.64-1.268-6.989
			c-0.309-2.185-0.231-4.37-0.112-6.538c0.109-1.998,0.612-3.973,0.878-5.966c0.083-0.624,0.422-1.105,0.634-1.655
			c0.266,0.328,0.304,0.831,0.771,1.004c0.123,0.262,0.245,0.523,0.368,0.785c-0.679,1.509-0.818,3.151-0.994,4.75
			c-0.449,4.081-0.286,8.155,0.725,12.155c0.348,1.376,1.027,2.663,1.154,4.105C462.197,305.067,461.478,304.517,460.759,303.967z"
			/>
		<path fill-rule="evenodd" clip-rule="evenodd" fill="#E8E7E7" d="M471.32,309.479c-0.045-0.999-0.985-1.381-1.499-2.024
			c-2.459-3.083-3.671-6.55-4.073-10.462c-0.36-3.496,0.188-6.853,0.812-10.231c0.083-0.445,0.08-1.113,0.867-1.041
			c0.048,0.239,0.096,0.479,0.144,0.718c-0.198,0.787,0.489,1.385,0.458,2.137c-1.08,0.359-0.803,1.404-0.933,2.126
			c-0.675,3.739-0.501,7.472,0.761,11.068c0.961,2.741,2.496,5.148,4.903,6.911c0.606,0.443,1.123,1.01,1.68,1.52
			C473.355,310.154,472.338,309.813,471.32,309.479z"/>
		<path fill-rule="evenodd" clip-rule="evenodd" fill="#BABABA" d="M456.678,274.667c-0.053,3.053-0.456,6.058-1.007,9.064
			c-0.333,1.813-0.577,3.656-0.717,5.517c-0.204,2.701-0.117,5.398-0.226,8.096c-0.658-0.629-1.149-1.366-1.456-2.225
			c0.465-1.11,0.502-2.301,0.507-3.462c0.012-3.381,0.601-6.701,0.912-10.051c0.191-2.057,0.057-4.145,0.069-6.219
			c0.323-0.37,0.928-0.256,1.207-0.701C456.204,274.68,456.441,274.674,456.678,274.667z"/>
		<path fill-rule="evenodd" clip-rule="evenodd" fill="#E8E7E7" d="M484.521,250.211c-0.116,0.66-0.647,0.481-1.033,0.456
			c-1.38-0.089-2.732,0.177-4.098,0.25c-0.367,0.02-0.608,0.126-0.63,0.526c-1.161,0.118-2.346,0.112-3.425,0.66
			c-1.596,0.194-3.009,0.893-4.384,1.658c-0.577,0.321-1.461,0.331-1.55,1.269c-1.499,0.579-2.789,1.446-3.775,2.733
			c-0.479-0.675-0.877-0.091-1.152,0.163c-1.044,0.967-2.045,1.983-3.027,3.015c-0.896,0.941-1.632,1.948-0.652,3.277
			c-0.985,1.135-1.391,2.544-1.914,4.112c1.236-0.587,1.952-1.653,3.011-2.222c0.213,0.905,0.777,1.461,1.675,1.684
			c-0.721,0.929-1.761,1.608-2.178,2.776c-0.168,0.186-0.335,0.373-0.503,0.559c-0.36-0.009-0.516-0.292-0.752-0.503
			c-0.922-0.826-1.445-2.012-2.364-2.785c-1.274-1.071-2.568-2.09-3.498-3.493c0.545-1.536,1.608-2.746,2.664-3.909
			c3.62-3.99,7.78-7.244,12.949-9.03c3.565-1.222,7.216-1.912,11-1.675C482.104,249.809,483.334,249.859,484.521,250.211z"/>
		<path fill-rule="evenodd" clip-rule="evenodd" fill="#E5E4E4" d="M454.271,264.347c0.93,1.403,2.224,2.422,3.498,3.493
			c0.919,0.773,1.441,1.959,2.364,2.785c0.236,0.211,0.392,0.494,0.752,0.503c-0.43,0.888-0.859,1.776-1.29,2.664
			c-1.397-1.273-2.697-2.684-4.228-3.769c-0.981-0.696-1.87-1.562-2.992-2.063C452.801,266.646,453.476,265.464,454.271,264.347z"/>
		<path fill-rule="evenodd" clip-rule="evenodd" fill="#DFDFDF" d="M452.376,267.959c1.122,0.501,2.011,1.368,2.992,2.063
			c1.531,1.085,2.831,2.496,4.228,3.769c0.034,0.063,0.024,0.119-0.03,0.167c-1.008,0.052-1.964,0.313-2.887,0.709
			c-0.237,0.006-0.474,0.012-0.711,0.019c-1.667-0.872-2.944-2.396-4.836-2.891C451.391,270.467,451.732,269.164,452.376,267.959z"
			/>
		<path fill-rule="evenodd" clip-rule="evenodd" fill="#D9D8D8" d="M451.131,271.796c1.892,0.495,3.169,2.019,4.836,2.891
			c-0.279,0.445-0.884,0.332-1.207,0.701c-0.965,0.083-1.82,0.547-2.737,0.795c-1.122,0.303-1.618-0.007-1.557-1.173
			C450.523,273.917,450.554,272.792,451.131,271.796z"/>
		<path fill-rule="evenodd" clip-rule="evenodd" fill="#F0EEEE" d="M491.46,301.8c-0.498,0.002-0.637,0.395-0.835,0.743
			c-2.021,3.543-4.964,5.947-9.01,6.618c-2.627,0.436-5.054-0.404-7.255-2.02c-3.615-2.651-5.077-6.282-5.197-10.604
			c-0.025-0.917,0.039-1.838-0.015-2.753c-0.054-0.909,0.115-1.739,0.591-2.511c0.529,0.396,0.938,0.905,1.333,1.426
			c-0.227,0.367-0.478,0.695-0.493,1.185c-0.076,2.337-0.153,4.679,0.627,6.924c0.682,1.964,1.614,3.755,3.298,5.137
			c1.971,1.619,4.156,2.28,6.652,2.093c0.174,0.259,0.338,0.244,0.492-0.019c1.437-0.474,2.607-1.399,3.759-2.318
			c2.883-2.302,4.929-5.146,5.46-8.903c0.298-0.539,0.039-1.168,0.282-1.716c0.524-0.476,0.5-0.957,0.016-1.444
			c-0.19-0.63-0.15-1.278-0.146-1.924c0.331-0.271,0.156-0.393-0.143-0.477c-0.308-1.214-0.471-2.471-1.052-3.606
			c-0.792-2.452-1.493-4.972-4.357-5.83c0.56,1.858,1.302,3.747,1.241,5.803c-0.01,0.324,0.148,0.516,0.397,0.67
			c0.299,2.824,0.408,5.651,0.126,8.483c-0.095,0.386-0.196,0.771-0.281,1.158c-0.484,2.224-1.096,4.396-2.45,6.28
			c-0.249-0.188-0.382-0.603-0.85-0.237c-0.425,0.332-0.952,0.533-1.438,0.788c-0.422,0.223-0.761,0.241-0.831-0.358
			c1.955-1.831,3.434-3.95,3.999-6.62c0.74-2.731,0.72-5.478,0.173-8.236c-0.137-1.559-0.497-3.065-1.044-4.529
			c-0.4-1.828-1.104-3.551-1.852-5.256c-0.074-0.168-0.144-0.526-0.313-0.435c-0.765,0.414-1.277-0.462-1.966-0.323
			c-0.318-0.168-0.639-0.395-0.918,0.063c-0.489,0.798-1.337,0.932-2.139,1.149c-0.254-0.863-0.041-1.758-0.178-2.63
			c0.065-0.483,0.131-0.966,0.196-1.45c0.661,0.061,1.231-0.256,1.839-0.429c1.473-0.417,2.936-0.95,4.512-0.531
			c0.647,0.172,1.301,0.322,1.952,0.481c0.123,0.506,0.015,1.11,0.597,1.424c0.988,1.245,2.508,1.662,3.799,2.435
			c0.28,1.602,1.764,2.961,0.965,4.781c0.095,0.297,0.198,0.593,0.283,0.893c0.612,2.142,0.806,4.36,1.18,6.545
			c0.081,2.403,0.09,4.805-0.183,7.199C491.901,299.849,491.939,300.898,491.46,301.8z"/>
		<path fill-rule="evenodd" clip-rule="evenodd" fill="#DF0A0A" d="M491.46,301.8c0.479-0.901,0.441-1.951,0.825-2.881
			c1.679,0.008,3.356,0.016,5.035,0.023c0.001,0.312,0.002,0.624,0.002,0.937c-0.365,1.068-0.785,2.112-1.324,3.106
			c-0.898,1.124-2.028,1.991-3.161,2.854c-1.422,0.54-2.761,1.369-4.37,1.247C489.83,305.531,490.953,303.84,491.46,301.8z"/>
		<path fill-rule="evenodd" clip-rule="evenodd" fill="#CE0C0C" d="M471.072,292.7c-0.396-0.521-0.804-1.029-1.333-1.426
			c-0.57-0.899-1.141-1.8-1.711-2.699c0.031-0.752-0.656-1.35-0.458-2.137c0.439,0.067,0.382,0.436,0.431,0.729
			c0.155,0.934,0.662,1.314,1.632,1.209c0.776-0.084,1.567-0.019,2.352-0.021c0.122,1.281,0.244,2.563,0.366,3.845
			c-0.033,0.381-0.066,0.762-0.1,1.144C471.683,293.45,471.51,292.834,471.072,292.7z"/>
		<path fill-rule="evenodd" clip-rule="evenodd" fill="#D9D8D8" d="M508.771,276.593c-0.555-0.5-1.433-0.342-1.937-0.948
			c0.882-0.961,1.764-1.922,2.645-2.883c0.081-0.001,0.162-0.002,0.244-0.004c0.031,0.333-0.125,0.711,0.24,0.96
			c0,0.585-0.057,1.177,0.015,1.753C510.098,276.453,509.648,276.732,508.771,276.593z"/>
		<path fill-rule="evenodd" clip-rule="evenodd" fill="#E8E7E7" d="M486.214,250.649c-0.428,0.375-0.796,0.495-0.972-0.224
			C485.577,250.452,485.945,250.332,486.214,250.649z"/>
		<path fill-rule="evenodd" clip-rule="evenodd" fill="#F0EEEE" d="M483.327,255.72c0.159,0,0.319,0,0.479,0
			c0.006,0.233,0.032,0.468,0.013,0.699c-0.058,0.705,0.46,1.121,0.912,1.41c0.452,0.29,0.528-0.414,0.808-0.632
			c0.476-0.372,0.55-1,0.823-1.505c0.435,0.089,0.868,0.178,1.302,0.268c-0.265,0.458-0.317,1.029-0.764,1.393
			c-0.223,0.182-0.225,0.379,0.006,0.583c0.954,0.843,1.766,0.695,2.447-0.457c0.158-0.267,0.317-0.533,0.477-0.799
			c2.757,0.665,5.082,2.165,7.252,3.897c0.522,0.417,0.519,1.375,1.391,1.608c0.255,0.068,0.081,0.382-0.018,0.611
			c-0.42,0.976-0.955,1.894-1.347,2.889c-0.21,0.533-0.362,1.024-0.355,1.581c-1.579-0.551-2.747-1.729-4.07-2.669
			c-0.458-0.937-1.64-1.012-2.109-2.233c-0.532-1.387-2.238-2.169-3.498-3.14c-0.351-0.271-0.525-0.238-0.861,0.098
			c-1.073,1.069-1.046,2.84-2.599,3.59c0.605,0.301,1.063,0.457,1.429,0.734c0.279,0.211,0.82,0.412,0.441,0.967
			c-1.346-0.156-2.642-0.226-3.195,1.427c-0.065,0.196-0.317,0.398-0.525,0.465c-1.138,0.365-1.031,1.276-0.972,2.154
			c0.031,0.46,0.175,0.731,0.747,0.42c1.133-0.618,2.363-0.632,3.62-0.461c2.336,0.317,4.438,1.289,6.543,2.26
			c-0.024,0.729-0.262,1.013-1.027,0.626c-1.564-0.791-3.203-1.389-4.934-1.73c-1.761-0.347-3.226,0.042-4.287,1.567
			c-0.479-0.007-0.956-0.008-1.435-0.021c-0.615-0.017-1.292,0.173-1.729-0.484l-0.003-0.008c0.56-0.4,0.748-1,0.86-1.633
			c0.021-0.121-0.14-0.243-0.233-0.174c-0.54,0.398-0.754,0.985-0.873,1.618c-0.007,0.039-0.002,0.08-0.003,0.119
			c-0.141,0.195-0.282,0.389-0.423,0.583c-0.914-0.079-1.867,0.709-2.747-0.125c0.275-0.52,0.551-1.039,0.827-1.559
			c0.664-0.621,1.202-1.375,1.97-1.886c0.271-0.181,0.415-0.355,0.132-0.653c-0.869-0.913-1.427-2.023-1.892-3.249
			c-1.602,1.695-2.877,3.455-3.753,5.489c-0.533,0.891-1.065,1.781-1.598,2.672c-0.793,0.001-1.588-0.028-2.354,0.241
			c-0.082-0.473-0.196-0.92-0.793-0.976c0.029-0.151,0.057-0.302,0.086-0.453c1.453-2.146,3.028-4.19,4.961-5.934
			c1.154-0.979,2.388-1.855,3.688-2.62c0.926-0.544,0.331-1.365,0.508-2.035c0.056-0.212-0.29-0.102-0.464-0.034
			c-2.945,1.141-5.778,2.496-8.357,4.341c-0.831,0.506-1.661,1.012-2.492,1.519c-0.32-0.62-0.602-1.254-0.736-1.944
			c3.026-2.04,6.281-3.569,9.833-4.45c0.508-0.126,1.137-0.111,1.333-0.906c-3.279-0.075-6.405,0.541-9.472,1.546
			c-0.062-0.485,0.176-0.753,0.538-1.083c0.558-0.51,1.44-0.734,1.607-1.631c2.702-0.937,5.409-0.878,8.128-0.068
			c0.292,0.087,0.76,0.489,0.91-0.055c0.333-1.208,1.359-1.331,2.457-1.602c-1.257-0.552-2.46-0.661-3.592-1.022
			c0.016-0.54,0.397-0.726,0.834-0.802c0.427-0.075,0.837-0.146,1.111-0.526c1.257,0.399,2.318,1.099,3.262,2.021
			C482.053,256.049,482.681,256.267,483.327,255.72z M480.917,261.272c0-0.51,0-0.869,0-1.229c-0.001-0.733-0.01-1.538,0.783-1.856
			c0.751-0.301,0.848,0.499,1.155,0.915c0.157,0.212,0.387,0.261,0.637,0.189c0.173-0.049,0.117-0.197,0.078-0.289
			c-0.399-0.934-0.9-1.819-1.878-2.232c-0.882-0.373-1.53,0.169-2.104,0.76c-1.495,1.537-1.341,5.199,0.277,6.51
			c0.47,0.38,0.977,0.735,1.632,0.459c0.195-0.082,0.568-0.316,0.271-0.481C480.494,263.311,481.142,262.099,480.917,261.272z"/>
		<path fill-rule="evenodd" clip-rule="evenodd" fill="#AC0606" d="M492.682,264.598c1.323,0.941,2.491,2.118,4.07,2.669
			c0.521,0.646,1.373,1.093,1.262,2.115c-0.175,0.08-0.455,0.19-0.333,0.381c0.156,0.246,0.499,0.086,0.76,0.116
			c0.338,0.122,0.475,0.386,0.515,0.721c-0.154,0.778-1.133,1.057-1.16,1.912c-0.662-0.43-0.934-1.375-1.938-1.378
			c-0.413-0.001-0.882-0.012-1.254-0.296c-0.002-0.079-0.003-0.157-0.004-0.236c-0.097-0.277,0.395-0.624,0.043-0.767
			c-0.213-0.086-0.464,0.322-0.509,0.65c-0.006,0.038-0.006,0.076-0.009,0.114c-0.803,0.131-1.67-0.293-2.422,0.279
			c-2.105-0.971-4.207-1.943-6.543-2.26c-1.257-0.171-2.487-0.157-3.62,0.461c-0.572,0.312-0.716,0.04-0.747-0.42
			c-0.06-0.878-0.166-1.789,0.972-2.154c0.208-0.067,0.46-0.269,0.525-0.465c0.554-1.653,1.85-1.583,3.195-1.427l-0.012-0.016
			c-0.107,0.237,0.07,0.368,0.207,0.487c0.928,0.805,2.125,0.952,3.246,1.19c1.021,0.218,0.483-0.478,0.36-0.88
			c0.718-0.648,1.584-0.176,2.37-0.313C492.047,265.015,492.577,265.264,492.682,264.598z M496.357,269.629
			c-0.084,0.094-0.193,0.161-0.21,0.247c-0.024,0.126,0.08,0.208,0.212,0.204c0.16-0.005,0.331-0.042,0.277-0.252
			C496.617,269.752,496.473,269.708,496.357,269.629z"/>
		<path fill-rule="evenodd" clip-rule="evenodd" fill="#E8E7E7" d="M497.795,272.511c0.027-0.855,1.006-1.134,1.16-1.912
			c0.56-0.051,0.898-0.44,0.992-0.906c0.332-1.659,1.778-2.794,2.055-4.479c0.046-0.276,0.325-0.543,0.552-0.755
			c0.869-0.815,1.292-1.79,1.17-2.986c1.297,1.213,2.185,2.701,2.887,4.313c-0.716,0.935-1.566,1.75-2.156,2.804
			c-0.978,1.747-2.082,3.424-3.134,5.13c-0.239,0-0.479,0-0.72,0c-0.886-0.284-1.761-0.61-2.694-0.713
			C497.869,272.842,497.832,272.676,497.795,272.511z"/>
		<path fill-rule="evenodd" clip-rule="evenodd" fill="#A00B0B" d="M483.327,255.72c-0.646,0.547-1.274,0.329-1.777-0.161
			c-0.944-0.921-2.005-1.621-3.262-2.021c-0.864-0.727-2.136-0.613-2.954-1.435c1.079-0.548,2.264-0.542,3.425-0.66
			c2.592-0.09,3.951,1.26,4.367,3.725C483.158,255.358,483.259,255.537,483.327,255.72z"/>
		<path fill-rule="evenodd" clip-rule="evenodd" fill="#A00B0B" d="M486.361,255.692c-0.273,0.504-0.348,1.133-0.823,1.505
			c-0.279,0.219-0.355,0.922-0.808,0.632c-0.452-0.29-0.97-0.705-0.912-1.41c0.02-0.231-0.007-0.466-0.013-0.699
			c0.277-1.341-0.149-2.539-0.755-3.699c-0.118-0.226-0.485-0.414-0.234-0.7c0.192-0.219,0.525-0.109,0.794-0.059
			c1.761,0.33,2.861,1.887,2.803,3.958C486.409,255.378,486.38,255.535,486.361,255.692z"/>
		<path fill-rule="evenodd" clip-rule="evenodd" fill="#A00B0B" d="M489.829,256.681c-0.159,0.266-0.318,0.532-0.477,0.799
			c-0.682,1.151-1.493,1.3-2.447,0.457c-0.23-0.204-0.229-0.402-0.006-0.583c0.446-0.364,0.499-0.935,0.764-1.393
			c0.367-0.653,0.387-1.396,0.216-2.052c-0.253-0.971,0.188-0.806,0.796-0.682c1.083,0.222,1.362,0.982,1.34,1.931
			C490.003,255.667,489.895,256.173,489.829,256.681z"/>
		<path fill-rule="evenodd" clip-rule="evenodd" fill="#C00C0C" d="M498.44,269.878c-0.261-0.029-0.604,0.13-0.76-0.116
			c-0.122-0.191,0.158-0.301,0.333-0.381C498.156,269.547,498.299,269.713,498.44,269.878z"/>
		<path fill-rule="evenodd" clip-rule="evenodd" fill="#E5E4E4" d="M501.32,273.72c1.052-1.706,2.156-3.383,3.134-5.13
			c0.59-1.053,1.44-1.869,2.156-2.804c0.755,1.114,1.33,2.312,1.685,3.612c-0.143,0.058-0.339,0.074-0.421,0.18
			c-1.292,1.651-2.665,3.244-3.673,5.098c-0.796-0.003-1.428-0.508-2.159-0.709C501.779,273.948,501.49,274.008,501.32,273.72z"/>
		<path fill-rule="evenodd" clip-rule="evenodd" fill="#DFDFDF" d="M504.201,274.676c1.008-1.854,2.381-3.447,3.673-5.098
			c0.082-0.105,0.278-0.122,0.421-0.18c0.391,0.881,0.781,1.763,1.172,2.644c0.004,0.24,0.008,0.48,0.012,0.72
			c-0.881,0.961-1.763,1.922-2.645,2.883c-0.157-0.004-0.315-0.008-0.473-0.013c-0.575-0.411-1.262-0.521-1.92-0.709
			C504.361,274.841,504.281,274.758,504.201,274.676z"/>
		<path fill-rule="evenodd" clip-rule="evenodd" fill="#B50505" d="M491.702,270.878c0.752-0.572,1.619-0.148,2.422-0.279
			c0.158,0.001,0.316,0.001,0.475,0.002c0.001,0.079,0.002,0.157,0.004,0.236c0.017,0.285,0.066,0.529,0.41,0.619
			c1.256,0.329,1.981,1.014,1.57,2.428c0.107,0.853-0.817,0.931-1.111,1.481c-0.69,0.415-1.381,0.829-2.071,1.244
			c-1.465,0.05-2.938,0.295-4.374-0.224c-0.625-0.226-0.782,0.131-0.79,0.657c-0.665,0.008-1.33,0.017-1.995,0.025
			c-0.582-0.314-0.474-0.918-0.597-1.424c0.002-0.556-0.301-0.975-0.64-1.368c-0.766-0.887-1.645-1.135-2.247-0.376
			c-1.061,1.335-1.076,0.335-1.277-0.44c-0.06-0.23-0.114-0.462-0.171-0.693c0.048-0.475,0.096-0.949,0.145-1.423
			c1.062-1.526,2.526-1.914,4.287-1.567c1.73,0.341,3.369,0.939,4.934,1.73C491.44,271.891,491.678,271.607,491.702,270.878z"/>
		<path fill-rule="evenodd" clip-rule="evenodd" fill="#DFDFDF" d="M493.4,276.609c0.69-0.415,1.381-0.829,2.071-1.244
			c0.329,0.04,0.59,0.15,0.768,0.475c1.47,2.669,2.224,5.545,2.724,8.54c0.297,1.776,0.313,3.574,0.349,5.323
			c0.061,3.065-0.274,6.161-1.13,9.15c-0.127,0.445-0.257,0.95-0.859,1.025c0-0.313-0.001-0.625-0.002-0.937
			c0.231-0.402,0.18-0.851,0.197-1.284c0.067-1.608-0.325-3.163-0.579-4.733c0.824-0.285,0.745-1,0.781-1.655
			c0.13-2.394-0.249-4.758-0.544-7.114c-0.161-1.289-0.212-2.733-1.371-3.703c-0.313-0.645,0.207-0.758,0.606-0.949
			c0.11-0.001,0.222-0.003,0.333-0.005c0.04,0.028,0.08,0.057,0.121,0.085c-0.032-0.039-0.064-0.077-0.097-0.116
			c-0.138-0.201-0.253-0.063-0.37,0.026c-0.236-0.304-0.529-0.529-0.661-0.954c-0.203-0.656,0.488-1.543-0.125-1.859
			c-0.551-0.283-1.128,0.701-1.867,0.688C493.391,277.224,493.4,276.914,493.4,276.609z"/>
		<path fill-rule="evenodd" clip-rule="evenodd" fill="#C00C0C" d="M496.583,273.884c0.411-1.414-0.314-2.1-1.57-2.428
			c-0.344-0.09-0.394-0.333-0.41-0.619c0.372,0.284,0.841,0.295,1.254,0.296c1.005,0.002,1.276,0.948,1.938,1.378
			c0.037,0.165,0.074,0.331,0.111,0.496c-0.139,0.401-0.179,0.805-0.041,1.215c0,0.429-0.142,0.81-0.393,1.153
			c-0.327,0.099-0.429,0.565-0.875,0.544c0.069-0.61,0.488-1.102,0.443-1.705C497.021,273.939,497.018,273.603,496.583,273.884z"/>
		<path fill-rule="evenodd" clip-rule="evenodd" fill="#B50505" d="M467.494,270.844c-0.029,0.151-0.057,0.302-0.086,0.453
			c-0.295,0.253-0.429,0.596-0.529,0.957c-0.971,1.558-1.343,3.341-1.902,5.055c-0.263-0.561-0.779-0.463-1.247-0.466
			c-1.474-0.007-2.948-0.003-4.422-0.003c-0.166-0.983,0.195-1.919,0.256-2.882c0.054-0.047,0.064-0.103,0.03-0.167
			c0.43-0.888,0.86-1.776,1.29-2.664c0.168-0.187,0.335-0.373,0.503-0.559C463.419,270.752,465.478,270.322,467.494,270.844z"/>
		<path fill-rule="evenodd" clip-rule="evenodd" fill="#C00404" d="M459.309,276.84c1.474,0,2.948-0.004,4.422,0.003
			c0.467,0.002,0.983-0.095,1.247,0.466c-0.123,1.124-0.471,2.221-0.387,3.368c-0.347,1.022-0.057,2.089-0.217,3.124
			c-0.903,0.008-1.806,0.015-2.709,0.021c-0.467-0.173-0.505-0.676-0.771-1.004c-0.151-0.703-0.825-1.157-0.9-1.896
			c-0.241-0.959-0.481-1.919-0.722-2.879C459.283,277.642,459.296,277.241,459.309,276.84z"/>
		<path fill-rule="evenodd" clip-rule="evenodd" fill="#C00404" d="M471.985,288.356c-0.785,0.002-1.576-0.063-2.352,0.021
			c-0.97,0.105-1.477-0.275-1.632-1.209c-0.049-0.294,0.008-0.662-0.431-0.729c-0.048-0.239-0.096-0.479-0.144-0.718
			c0.007-1.52,0.015-3.039,0.022-4.559c0.011-2.194,1.022-4.086,1.82-6.042c1.31,0.013,2.621,0.026,3.931,0.04
			c0.008,0.16,0.016,0.32,0.023,0.48c-0.64,1.949-0.941,3.951-0.946,6C471.848,283.864,472.158,286.121,471.985,288.356z"/>
		<path fill-rule="evenodd" clip-rule="evenodd" fill="#DDD9D9" d="M469.269,275.12c-0.798,1.956-1.809,3.848-1.82,6.042
			c-0.564-0.072-0.762,0.298-0.907,0.741c-0.395,1.201-0.813,2.396-1.179,3.604c-0.109,0.359-0.128,0.717-0.626,0.687
			c-0.121-0.798-0.242-1.596-0.363-2.394c0.16-1.035-0.129-2.102,0.217-3.124c0.62,0.002,0.767-0.493,0.929-0.928
			c0.722-1.939,1.77-3.688,3.065-5.29c0.21-0.26,0.485-0.789,0.872-0.123C469.394,274.598,469.331,274.859,469.269,275.12z"/>
		<path fill-rule="evenodd" clip-rule="evenodd" fill="#CE0C0C" d="M464.373,283.801c0.121,0.798,0.242,1.596,0.363,2.394
			c0.039,0.5,0.078,1,0.117,1.5c-0.385-0.346-0.769-0.69-1.154-1.036c-0.556-0.684-1.112-1.367-1.667-2.051
			c-0.123-0.262-0.245-0.523-0.368-0.785C462.566,283.815,463.47,283.809,464.373,283.801z"/>
		<path fill-rule="evenodd" clip-rule="evenodd" fill="#AC0606" d="M467.494,270.844c-2.016-0.522-4.075-0.092-6.105-0.276
			c0.417-1.168,1.457-1.847,2.178-2.776c0.676-0.481,1.255-1.063,1.771-1.711c0.831-0.506,1.662-1.012,2.492-1.519
			c1.541,0.129,3.113-0.147,4.626,0.348C470.521,266.654,468.947,268.698,467.494,270.844z"/>
		<path fill-rule="evenodd" clip-rule="evenodd" fill="#A70808" d="M466.294,260.328c3.067-1.006,6.193-1.622,9.472-1.546
			c-0.195,0.794-0.825,0.779-1.333,0.906c-3.552,0.881-6.807,2.411-9.833,4.45c-0.971,0.563-1.889,1.201-2.71,1.971
			c-1.059,0.569-1.775,1.635-3.011,2.222c0.523-1.568,0.929-2.977,1.914-4.112C462.32,262.487,464.179,261.226,466.294,260.328z"/>
		<path fill-rule="evenodd" clip-rule="evenodd" fill="#A00B0B" d="M476.342,254.867c1.131,0.361,2.334,0.47,3.592,1.022
			c-1.098,0.271-2.124,0.394-2.457,1.602c-0.15,0.543-0.618,0.142-0.91,0.055c-2.719-0.811-5.426-0.869-8.128,0.068
			c-0.801,0.066-1.484,0.478-2.213,0.757c-0.277,0.106-0.584,0.432-0.838,0.13c-0.189-0.225,0.226-0.46,0.237-0.737
			c0.986-1.287,2.276-2.154,3.775-2.733C471.702,254.467,474.02,254.584,476.342,254.867z"/>
		<path fill-rule="evenodd" clip-rule="evenodd" fill="#ECE7E7" d="M465.625,257.763c-0.011,0.277-0.426,0.512-0.237,0.737
			c0.254,0.302,0.562-0.024,0.838-0.13c0.729-0.279,1.412-0.69,2.213-0.757c-0.167,0.897-1.049,1.121-1.607,1.631
			c-0.362,0.331-0.6,0.599-0.538,1.083c-2.115,0.898-3.974,2.159-5.5,3.89c-0.98-1.33-0.245-2.336,0.652-3.277
			c0.982-1.031,1.983-2.047,3.027-3.015C464.747,257.672,465.145,257.088,465.625,257.763z"/>
		<path fill-rule="evenodd" clip-rule="evenodd" fill="#ECE7E7" d="M476.342,254.867c-2.322-0.283-4.64-0.4-6.942,0.163
			c0.089-0.938,0.973-0.947,1.55-1.269c1.375-0.765,2.788-1.464,4.384-1.658c0.817,0.822,2.09,0.708,2.954,1.435
			c-0.274,0.381-0.685,0.452-1.111,0.526C476.739,254.142,476.357,254.327,476.342,254.867z"/>
		<path fill-rule="evenodd" clip-rule="evenodd" fill="#ECE7E7" d="M461.891,266.108c0.821-0.77,1.739-1.407,2.71-1.971
			c0.134,0.69,0.416,1.324,0.736,1.944c-0.516,0.647-1.095,1.229-1.771,1.711C462.667,267.569,462.104,267.013,461.891,266.108z"/>
		<path fill-rule="evenodd" clip-rule="evenodd" fill="#F3F1F1" d="M471.072,292.7c0.438,0.134,0.611,0.75,1.179,0.645
			c0.194,0.357,0.383,0.751,0.238,1.14c-0.28,0.754-0.127,1.46-0.017,2.22c0.108,0.739,0.204,1.5,0.324,2.231
			c0.513,3.119,1.877,5.694,5.017,6.949c-0.004,0.079-0.009,0.158-0.014,0.237c0.031,0.107,0.062,0.215,0.092,0.322
			c0.05-0.091,0.1-0.183,0.15-0.274c1.291-0.262,2.297-1.057,3.341-1.782c0.07,0.6,0.409,0.581,0.831,0.358
			c0.485-0.255,1.013-0.456,1.438-0.788c0.468-0.365,0.601,0.05,0.85,0.237c-0.786,1.352-1.715,2.587-2.914,3.604
			c-0.186,0.005-0.345,0.057-0.431,0.239c-2.496,0.188-4.681-0.474-6.652-2.093c-1.684-1.382-2.616-3.173-3.298-5.137
			c-0.78-2.245-0.703-4.587-0.627-6.924C470.595,293.396,470.845,293.067,471.072,292.7z M477.082,306.598
			c-0.034-0.032-0.067-0.064-0.101-0.097c0.032,0.034,0.064,0.067,0.097,0.102c0.086,0.061,0.173,0.121,0.26,0.182
			c0.021-0.031,0.042-0.062,0.062-0.093C477.293,306.66,477.188,306.629,477.082,306.598z"/>
		<path fill-rule="evenodd" clip-rule="evenodd" fill="#D60404" d="M496.938,292.925c0.254,1.57,0.646,3.125,0.579,4.733
			c-0.018,0.434,0.034,0.882-0.197,1.284c-1.679-0.008-3.356-0.016-5.035-0.023c0.272-2.395,0.264-4.796,0.183-7.199
			c1.339,0.001,2.678,0.001,4.017,0.001C496.636,292.122,496.787,292.523,496.938,292.925z"/>
		<path fill-rule="evenodd" clip-rule="evenodd" fill="#D60404" d="M489.825,287.631c0.581,1.136,0.744,2.393,1.052,3.606
			c-0.042,0.186,0.02,0.34,0.143,0.477c-0.005,0.646-0.045,1.294,0.146,1.924c-0.108,0.48-0.107,0.962-0.016,1.444
			c-0.243,0.548,0.016,1.177-0.282,1.716c-1.212-0.014-2.424-0.027-3.635-0.041c0.282-2.832,0.173-5.659-0.126-8.483
			c0.054-0.494,0.35-0.651,0.817-0.638C488.558,287.653,489.191,287.635,489.825,287.631z"/>
		<path fill-rule="evenodd" clip-rule="evenodd" fill="#DF0A0A" d="M487.232,296.757c1.211,0.014,2.423,0.027,3.635,0.041
			c-0.531,3.758-2.577,6.602-5.46,8.903c-1.151,0.919-2.322,1.845-3.759,2.318c-0.001-0.078-0.021-0.152-0.062-0.221
			c1.199-1.017,2.128-2.252,2.914-3.604c1.354-1.884,1.966-4.057,2.45-6.28C487.036,297.527,487.138,297.143,487.232,296.757z"/>
		<path fill-rule="evenodd" clip-rule="evenodd" fill="#D60404" d="M485.555,289.531c0.547,2.759,0.567,5.505-0.173,8.236
			c-1.092-0.135-2.217,0.114-3.284-0.294c0.23-2.557,0.31-5.116,0.149-7.682C483.317,289.296,484.459,289.7,485.555,289.531z"/>
		<path fill-rule="evenodd" clip-rule="evenodd" fill="#C00404" d="M477.146,277.57c0.137,0.872-0.076,1.767,0.178,2.63
			c-0.083,1.604,0.291,3.112,0.957,4.56c-0.004,0.16-0.009,0.32-0.013,0.48c-1.415,0.447-2.87,0.159-4.306,0.239
			c-0.262-1.614,0.072-3.202,0.215-4.798c0.251-0.871,0.51-1.741,0.592-2.649c0.052-0.073,0.104-0.146,0.157-0.218l0.011-0.006
			C475.65,277.515,476.397,277.541,477.146,277.57z"/>
		<path fill-rule="evenodd" clip-rule="evenodd" fill="#CE0606" d="M496.484,291.721c-1.339,0-2.678,0-4.017-0.001
			c-0.374-2.185-0.567-4.403-1.18-6.545c-0.085-0.3-0.188-0.596-0.283-0.893c0.37-0.065,0.736,0.005,1.12-0.188
			c0.402-0.203,0.904-0.162,1.231,0.289c0.027,0.411,0.296,0.717,0.47,1.063C494.85,287.479,495.913,289.495,496.484,291.721z"/>
		<path fill-rule="evenodd" clip-rule="evenodd" fill="#C00C0C" d="M493.745,277.369c0.739,0.012,1.316-0.972,1.867-0.688
			c0.613,0.315-0.078,1.203,0.125,1.859c0.132,0.425,0.425,0.65,0.661,0.954l0.013,0.01c-0.399,0.19-0.919,0.304-0.606,0.949
			c-1.246-0.907-0.544,0.479-0.792,0.725c-1.059-0.592-1.059-0.592-1.233,0.391c-0.403-0.033-0.434-0.556-0.813-0.624
			c-0.275,0.241-0.132,0.605-0.262,0.887c-0.474-0.265-0.784-0.7-1.013-1.154c-0.355-0.706-0.905-1.058-1.651-1.174
			c-1.291-0.773-2.811-1.19-3.799-2.435c0.665-0.008,1.33-0.017,1.995-0.025C489.648,278.21,492.022,278.352,493.745,277.369z"/>
		<path fill-rule="evenodd" clip-rule="evenodd" fill="#DF0A0A" d="M482.098,297.474c1.067,0.408,2.192,0.159,3.284,0.294
			c-0.565,2.67-2.044,4.789-3.999,6.62c-1.044,0.726-2.051,1.521-3.341,1.782c-0.081-0.016-0.161-0.031-0.242-0.048
			c0.005-0.079,0.01-0.158,0.014-0.237c1.432-0.846,2.199-2.219,2.893-3.649C481.44,300.727,481.685,299.076,482.098,297.474z"/>
		<path fill-rule="evenodd" clip-rule="evenodd" fill="#F3F1F1" d="M478.28,284.76c-0.666-1.447-1.04-2.955-0.957-4.56
			c0.802-0.218,1.65-0.352,2.139-1.149c0.28-0.458,0.6-0.23,0.918-0.063c0.42,1.328,0.714,2.682,0.88,4.064
			c-0.556-0.021-0.994,0.177-1.266,0.682C479.627,284.418,479.057,284.761,478.28,284.76z"/>
		<path fill-rule="evenodd" clip-rule="evenodd" fill="#CE0C0C" d="M485.555,289.531c-1.096,0.169-2.237-0.235-3.308,0.261
			c-0.387-0.089-0.325-0.412-0.313-0.668c0.066-1.383-0.076-2.754-0.219-4.125c0.932,0.001,1.863,0.002,2.795,0.003
			C485.058,286.466,485.418,287.973,485.555,289.531z"/>
		<path fill-rule="evenodd" clip-rule="evenodd" fill="#C00C0C" d="M484.511,285.002c-0.932-0.001-1.863-0.002-2.795-0.003
			c-0.152-0.648-0.304-1.298-0.455-1.946c-0.166-1.383-0.46-2.736-0.88-4.064c0.688-0.139,1.201,0.737,1.966,0.323
			c0.169-0.092,0.238,0.267,0.313,0.435C483.407,281.451,484.11,283.174,484.511,285.002z"/>
		<path fill-rule="evenodd" clip-rule="evenodd" fill="#EFEBEB" d="M481.31,272.765c0.057,0.231,0.111,0.462,0.171,0.693
			c0.201,0.776,0.217,1.776,1.277,0.44c0.603-0.759,1.481-0.511,2.247,0.376c0.339,0.393,0.642,0.812,0.64,1.368
			c-0.651-0.16-1.305-0.31-1.952-0.481c-1.576-0.419-3.039,0.114-4.512,0.531c-0.608,0.172-1.178,0.489-1.839,0.429
			c-0.124-0.846,0.224-1.611,0.414-2.402C478.971,273.514,480.066,272.864,481.31,272.765z"/>
		<path fill-rule="evenodd" clip-rule="evenodd" fill="#CE0C0C" d="M489.825,287.631c-0.634,0.004-1.268,0.022-1.901,0.005
			c-0.468-0.014-0.764,0.144-0.817,0.638c-0.249-0.154-0.407-0.346-0.397-0.67c0.061-2.056-0.682-3.944-1.241-5.803
			C488.332,282.659,489.033,285.179,489.825,287.631z"/>
		<path fill-rule="evenodd" clip-rule="evenodd" fill="#C00C0C" d="M477.756,273.718c-0.19,0.792-0.538,1.556-0.414,2.402
			c-0.065,0.483-0.131,0.967-0.196,1.45c-0.748-0.029-1.495-0.055-2.208,0.237c0.144-1.398,1.09-2.505,1.391-3.846
			c0.429-0.873,0.858-1.747,1.287-2.62c0.141-0.194,0.282-0.389,0.423-0.583c0.083,0.023,0.166,0.047,0.249,0.07l0.003,0.008
			C478.112,271.797,477.934,272.758,477.756,273.718z"/>
		<path fill-rule="evenodd" clip-rule="evenodd" fill="#EFEBEB" d="M490.04,279.501c0.746,0.117,1.296,0.468,1.651,1.174
			c0.229,0.454,0.539,0.89,1.013,1.154c0.783,0.706,0.773,1.615,0.652,2.553c-0.327-0.451-0.829-0.492-1.231-0.289
			c-0.384,0.193-0.75,0.123-1.12,0.188C491.804,282.463,490.32,281.104,490.04,279.501z"/>
		<path fill-rule="evenodd" clip-rule="evenodd" fill="#EFEBEB" d="M491.149,295.082c-0.092-0.482-0.093-0.964,0.016-1.444
			C491.649,294.125,491.674,294.606,491.149,295.082z"/>
		<path fill-rule="evenodd" clip-rule="evenodd" fill="#EFEBEB" d="M491.02,291.714c-0.123-0.137-0.185-0.291-0.143-0.477
			C491.176,291.321,491.351,291.442,491.02,291.714z"/>
		<path fill-rule="evenodd" clip-rule="evenodd" fill="#EFEBEB" d="M481.587,307.799c0.04,0.068,0.061,0.143,0.062,0.221
			c-0.154,0.263-0.318,0.277-0.492,0.019C481.242,307.855,481.401,307.804,481.587,307.799z"/>
		<path fill-rule="evenodd" clip-rule="evenodd" fill="#F7F1F1" d="M481.261,283.053c0.151,0.648,0.303,1.298,0.455,1.946
			c0.143,1.371,0.285,2.742,0.219,4.125c-0.013,0.256-0.074,0.579,0.313,0.668c0.16,2.565,0.081,5.125-0.149,7.682
			c-0.413,1.603-0.657,3.253-1.391,4.762c-0.694,1.431-1.461,2.804-2.893,3.649c-3.14-1.255-4.504-3.83-5.017-6.949
			c-0.12-0.731-0.215-1.492-0.324-2.231c-0.111-0.76-0.263-1.466,0.017-2.22c0.145-0.389-0.044-0.782-0.238-1.14
			c0.033-0.382,0.066-0.763,0.1-1.144c0.939,0.006,0.869-0.884,1.208-1.395c0.319-0.479,0.455-1.126,1.234-1.044
			c0.46,0.684,0.542,1.563,1.127,2.182c-0.034,0.365,0.058,0.693,0.281,0.985c-0.071,0.175,0.03,0.197,0.167,0.187
			c0.033,0.18,0.065,0.358,0.098,0.538c-0.09,0.178,0.016,0.179,0.144,0.159c0.894,2.323,1.061,4.685,0.367,7.09
			c-0.486,0.774-0.866,1.62-1.792,2.332c1.537,0.07,2.209-0.788,2.866-1.672c2.376-3.059,2.175-6.547,1.674-10.084
			c-0.198-2.146-0.714-4.22-1.458-6.239c0.004-0.16,0.009-0.32,0.013-0.48c0.776,0.001,1.347-0.342,1.715-1.025
			C480.267,283.229,480.705,283.031,481.261,283.053z"/>
		<path fill-rule="evenodd" clip-rule="evenodd" fill="#F3F1F1" d="M474.793,289.763c-0.779-0.082-0.915,0.564-1.234,1.044
			c-0.34,0.511-0.27,1.4-1.208,1.395c-0.122-1.281-0.244-2.563-0.366-3.845c0.172-2.235-0.138-4.492,0.292-6.716
			c0.794,0,1.014-1.14,1.899-0.959c-0.144,1.596-0.478,3.184-0.215,4.798C473.927,286.968,473.993,288.437,474.793,289.763z"/>
		<path fill-rule="evenodd" clip-rule="evenodd" fill="#A70808" d="M492.682,264.598c-0.104,0.666-0.635,0.417-1.025,0.485
			c-0.786,0.137-1.652-0.335-2.37,0.313c-1.049-1.328-2.508-0.695-3.813-0.798l0.012,0.016c0.379-0.555-0.162-0.756-0.441-0.967
			c-0.365-0.277-0.823-0.433-1.429-0.734c1.553-0.75,1.525-2.521,2.599-3.59c0.336-0.335,0.511-0.369,0.861-0.098
			c1.26,0.971,2.966,1.753,3.498,3.14C491.042,263.586,492.224,263.661,492.682,264.598z"/>
		<path fill-rule="evenodd" clip-rule="evenodd" fill="#B50505" d="M469.269,275.12c0.063-0.261,0.125-0.522,0.188-0.784
			c0.366-0.768,0.732-1.537,1.098-2.305c0.532-0.891,1.065-1.781,1.598-2.672c1.153,0.432,2.36,0.225,3.543,0.299
			c-0.276,0.52-0.552,1.039-0.827,1.559c-0.838,1.195-1.123,2.624-1.668,3.942C471.889,275.146,470.579,275.133,469.269,275.12z"/>
		<path fill-rule="evenodd" clip-rule="evenodd" fill="#A00B0B" d="M480.917,261.272c0.225,0.827-0.423,2.039,0.852,2.748
			c0.297,0.165-0.076,0.399-0.271,0.481c-0.655,0.276-1.162-0.079-1.632-0.459c-1.618-1.312-1.772-4.973-0.277-6.51
			c0.574-0.591,1.223-1.133,2.104-0.76c0.978,0.414,1.479,1.298,1.878,2.232c0.039,0.092,0.095,0.239-0.078,0.289
			c-0.25,0.072-0.479,0.022-0.637-0.189c-0.308-0.416-0.404-1.216-1.155-0.915c-0.793,0.318-0.784,1.123-0.783,1.856
			C480.917,260.403,480.917,260.762,480.917,261.272z"/>
		<path fill-rule="evenodd" clip-rule="evenodd" fill="#AC0606" d="M475.695,269.659c-1.183-0.074-2.39,0.133-3.543-0.299
			c0.875-2.034,2.151-3.794,3.753-5.489c0.465,1.226,1.023,2.336,1.892,3.249c0.283,0.297,0.139,0.472-0.132,0.653
			C476.897,268.284,476.359,269.038,475.695,269.659z"/>
		<path fill-rule="evenodd" clip-rule="evenodd" fill="#D9D8D8" d="M470.554,272.032c-0.366,0.768-0.732,1.537-1.098,2.305
			c-0.386-0.667-0.662-0.137-0.872,0.123c-1.296,1.602-2.343,3.351-3.065,5.29c-0.162,0.435-0.31,0.93-0.929,0.928
			c-0.084-1.147,0.264-2.245,0.387-3.368c0.559-1.713,0.931-3.497,1.902-5.055c0.441,0.006,0.881,0.013,1.322,0.019
			C468.966,272.003,469.761,272.033,470.554,272.032z"/>
		<path fill-rule="evenodd" clip-rule="evenodd" fill="#A70808" d="M472.455,264.91c-1.513-0.495-3.085-0.219-4.626-0.348
			c2.579-1.846,5.412-3.201,8.357-4.341c0.174-0.067,0.52-0.178,0.464,0.034c-0.177,0.67,0.418,1.491-0.508,2.035
			C474.843,263.055,473.609,263.932,472.455,264.91z"/>
		<path fill-rule="evenodd" clip-rule="evenodd" fill="#E5E4E4" d="M473.2,275.16c0.545-1.318,0.831-2.748,1.668-3.942
			c0.88,0.833,1.833,0.045,2.747,0.125c-0.429,0.873-0.858,1.747-1.287,2.62c-0.591-0.026-1.042,0.254-1.454,0.642
			c-0.48,0.453-0.969,0.901-1.651,1.037C473.215,275.48,473.208,275.32,473.2,275.16z"/>
		<path fill-rule="evenodd" clip-rule="evenodd" fill="#E5E4E4" d="M477.756,273.718c0.178-0.96,0.356-1.921,0.535-2.882
			c0.437,0.658,1.114,0.467,1.729,0.484c0.479,0.013,0.956,0.014,1.435,0.021c-0.049,0.475-0.097,0.949-0.145,1.423
			C480.066,272.864,478.971,273.514,477.756,273.718z"/>
		<path fill-rule="evenodd" clip-rule="evenodd" fill="#EFEBEB" d="M478.287,270.829c-0.083-0.023-0.166-0.047-0.249-0.07
			c0.001-0.04-0.004-0.081,0.003-0.119c0.119-0.632,0.333-1.219,0.873-1.618c0.093-0.069,0.254,0.053,0.233,0.174
			C479.035,269.828,478.847,270.429,478.287,270.829z"/>
		<path fill-rule="evenodd" clip-rule="evenodd" fill="#EFEBEB" d="M468.201,272.272c-0.44-0.006-0.881-0.012-1.322-0.019
			c0.1-0.361,0.234-0.704,0.529-0.957C468.004,271.353,468.119,271.8,468.201,272.272z"/>
		<path fill-rule="evenodd" clip-rule="evenodd" fill="#EFEBEB" d="M485.473,264.597c1.306,0.103,2.765-0.53,3.813,0.798
			c0.123,0.402,0.661,1.098-0.36,0.88c-1.121-0.239-2.318-0.385-3.246-1.19C485.543,264.965,485.365,264.834,485.473,264.597z"/>
		<path fill-rule="evenodd" clip-rule="evenodd" fill="#C00C0C" d="M494.599,270.601c-0.158,0-0.316-0.001-0.475-0.002
			c0.003-0.038,0.003-0.076,0.009-0.114c0.045-0.329,0.296-0.736,0.509-0.65C494.993,269.977,494.502,270.324,494.599,270.601z"/>
		<path fill-rule="evenodd" clip-rule="evenodd" fill="#C00C0C" d="M496.357,269.629c0.115,0.078,0.26,0.123,0.279,0.199
			c0.054,0.209-0.117,0.247-0.277,0.252c-0.132,0.004-0.236-0.078-0.212-0.204C496.164,269.791,496.273,269.723,496.357,269.629z"/>
		<path fill-rule="evenodd" clip-rule="evenodd" fill="#DDD9D9" d="M493.745,277.369c-1.723,0.982-4.097,0.841-5.509-0.328
			c0.008-0.526,0.165-0.883,0.79-0.657c1.436,0.519,2.909,0.274,4.374,0.224C493.4,276.914,493.391,277.224,493.745,277.369z"/>
		<path fill-rule="evenodd" clip-rule="evenodd" fill="#E5E4E4" d="M493.356,284.383c0.121-0.938,0.131-1.847-0.652-2.553
			c0.13-0.281-0.014-0.646,0.262-0.887c0.38,0.068,0.41,0.591,0.813,0.624c0.175-0.982,0.175-0.982,1.233-0.391
			c0.248-0.246-0.454-1.632,0.792-0.725c1.159,0.97,1.21,2.414,1.371,3.703c0.295,2.356,0.674,4.721,0.544,7.114
			c-0.036,0.655,0.043,1.37-0.781,1.655c-0.151-0.401-0.303-0.803-0.454-1.204c-0.571-2.226-1.635-4.241-2.658-6.275
			C493.652,285.1,493.384,284.794,493.356,284.383z"/>
		<path fill-rule="evenodd" clip-rule="evenodd" fill="#DDD9D9" d="M496.769,279.468c0.032,0.039,0.064,0.077,0.097,0.116
			c-0.041-0.028-0.081-0.057-0.121-0.085L496.769,279.468z"/>
		<path fill-rule="evenodd" clip-rule="evenodd" fill="#DDD9D9" d="M496.398,279.494c0.117-0.088,0.232-0.227,0.37-0.026
			l-0.024,0.03c-0.111,0.002-0.223,0.004-0.333,0.005L496.398,279.494z"/>
		<path fill-rule="evenodd" clip-rule="evenodd" fill="#ECE7E7" d="M473.223,275.64c0.682-0.136,1.17-0.583,1.651-1.037
			c0.412-0.388,0.863-0.668,1.454-0.642c-0.301,1.341-1.247,2.448-1.391,3.846l-0.011,0.006c-0.134,0.014-0.249,0.042-0.157,0.218
			c-0.083,0.909-0.341,1.778-0.592,2.649c-0.886-0.181-1.105,0.959-1.899,0.959C472.282,279.591,472.583,277.589,473.223,275.64z"/>
		<path fill-rule="evenodd" clip-rule="evenodd" fill="#EFEBEB" d="M477.8,306.122c0.081,0.017,0.161,0.032,0.242,0.048
			c-0.05,0.092-0.1,0.184-0.15,0.274C477.861,306.337,477.831,306.229,477.8,306.122z"/>
		<path fill-rule="evenodd" clip-rule="evenodd" fill="#EFEBEB" d="M477.082,306.598c0.106,0.031,0.211,0.063,0.317,0.094
			c-0.021,0.031-0.042,0.062-0.062,0.093c-0.086-0.061-0.173-0.121-0.26-0.182L477.082,306.598z"/>
		<path fill-rule="evenodd" clip-rule="evenodd" fill="#EFEBEB" d="M477.078,306.603c-0.032-0.034-0.064-0.067-0.097-0.102
			c0.034,0.032,0.067,0.064,0.101,0.097L477.078,306.603z"/>
		<path fill-rule="evenodd" clip-rule="evenodd" fill="#CE0606" d="M474.793,289.763c-0.801-1.326-0.866-2.795-0.832-4.283
			c1.436-0.08,2.891,0.208,4.306-0.239c0.744,2.02,1.26,4.093,1.458,6.239c-0.438,0.001-0.876-0.021-1.313,0.005
			c-0.849,0.049-1.764-0.246-2.492,0.46C475.336,291.325,475.253,290.446,474.793,289.763z"/>
		<path fill-rule="evenodd" clip-rule="evenodd" fill="#C00C0C" d="M474.769,278.032c-0.092-0.177,0.023-0.205,0.157-0.218
			C474.874,277.886,474.821,277.959,474.769,278.032z"/>
		<path fill-rule="evenodd" clip-rule="evenodd" fill="#D60404" d="M475.921,291.944c0.728-0.706,1.644-0.411,2.492-0.46
			c0.437-0.025,0.875-0.004,1.313-0.005c0.501,3.537,0.702,7.025-1.674,10.084c-0.458-0.056-0.846-0.227-1.073-0.66
			c0.693-2.405,0.526-4.767-0.367-7.09c-0.029-0.071-0.077-0.124-0.144-0.159c-0.033-0.18-0.065-0.358-0.098-0.538
			c-0.056-0.063-0.111-0.124-0.167-0.187C475.979,292.638,475.887,292.31,475.921,291.944z"/>
		<path fill-rule="evenodd" clip-rule="evenodd" fill="#DF0A0A" d="M476.978,300.903c0.227,0.434,0.615,0.604,1.073,0.66
			c-0.657,0.884-1.329,1.742-2.866,1.672C476.112,302.523,476.492,301.678,476.978,300.903z"/>
		<path fill-rule="evenodd" clip-rule="evenodd" fill="#CE0606" d="M476.202,292.93c0.056,0.063,0.111,0.124,0.167,0.187
			C476.231,293.127,476.131,293.104,476.202,292.93z"/>
		<path fill-rule="evenodd" clip-rule="evenodd" fill="#CE0606" d="M476.467,293.654c0.067,0.035,0.115,0.088,0.144,0.159
			C476.483,293.833,476.377,293.832,476.467,293.654z"/>
	</g>
</g>
</svg>
